<svg width="256" height="256" xmlns="http://www.w3.org/2000/svg">
 <defs>
  <linearGradient y2="0" x2="1" y1="0" x1="0" id="svg_15">
   <stop offset="0" stop-opacity="0.99609" stop-color="#5f94d8"/>
   <stop offset="1" stop-opacity="0.99609" stop-color="#005fbf"/>
  </linearGradient>
 </defs>
 <g>
  <title>background</title>
  <rect fill="none" id="canvas_background" height="258" width="258" y="-1" x="-1"/>
 </g>
 <g>
  <title>Layer 1</title>
  <g stroke="null" id="database_server">
   <path fill="url(#svg_15)" stroke="null" id="svg_1" d="m178.341,77.642a12.59097,12.5412 0 0 0 -11.891,-8.442l-4.21667,0l0,-8.4l4.21667,0a12.68795,12.6378 0 0 0 12.65,-12.6l0,-33.6a12.68795,12.6378 0 0 0 -12.65,-12.6l-151.8,0a12.68795,12.6378 0 0 0 -12.65,12.6l0,33.6a12.68795,12.6378 0 0 0 12.65,12.6l4.21667,0l0,8.4l-4.21667,0a12.68795,12.6378 0 0 0 -12.65,12.6l0,33.6a12.68795,12.6378 0 0 0 12.65,12.6l4.21667,0l0,8.4l-4.21667,0a12.68795,12.6378 0 0 0 -12.65,12.6l0,33.6a12.68795,12.6378 0 0 0 12.65,12.6l80.11667,0l0,33.6c0,16.548 40.31133,25.2 80.11667,25.2s80.11667,-8.652 80.11667,-25.2l0,-125.99999c0,-16.086 -37.99217,-24.654 -76.659,-25.158zm-163.691,-25.242a4.21667,4.2 0 0 1 -4.21667,-4.2l0,-33.6a4.21667,4.2 0 0 1 4.21667,-4.2l151.8,0a4.21667,4.2 0 0 1 4.21667,4.2l0,33.6a4.21667,4.2 0 0 1 -4.21667,4.2l-151.8,0zm139.15,8.4l0,8.4l-16.86667,0l0,-8.4l16.86667,0zm-25.3,0l0,8.4l-75.9,0l0,-8.4l75.9,0zm-84.33333,0l0,8.4l-16.86667,0l0,-8.4l16.86667,0zm50.6,125.99999l-80.11667,0a4.21667,4.2 0 0 1 -4.21667,-4.2l0,-33.6a4.21667,4.2 0 0 1 4.21667,-4.2l80.11667,0l0,42zm-67.46667,-50.4l0,-8.4l16.86667,0l0,8.4l-16.86667,0zm67.46667,0l-42.16667,0l0,-8.4l42.16667,0l0,8.4zm0,-33.6l0,16.8l-80.11667,0a4.21667,4.2 0 0 1 -4.21667,-4.2l0,-33.6a4.21667,4.2 0 0 1 4.21667,-4.2l151.8,0a2.95167,2.94 0 0 1 0.59033,0.126c-37.10667,1.05 -72.27367,9.618 -72.27367,25.074zm151.8,125.99999c0,5.712 -25.3,16.8 -71.68333,16.8s-71.68333,-11.088 -71.68333,-16.8l0,-30.156c13.87283,8.778 42.84133,13.356 71.68333,13.356s57.8105,-4.578 71.68333,-13.356l0,30.156zm0,-42c0,5.712 -25.3,16.8 -71.68333,16.8s-71.68333,-11.088 -71.68333,-16.8l0,-30.156c13.87283,8.778 42.84133,13.356 71.68333,13.356s57.8105,-4.578 71.68333,-13.356l0,30.156zm0,-42c0,5.712 -25.3,16.8 -71.68333,16.8s-71.68333,-11.088 -71.68333,-16.8l0,-30.156c13.87283,8.778 42.84133,13.356 71.68333,13.356s57.8105,-4.578 71.68333,-13.356l0,30.156zm-71.68333,-25.2c-46.38333,0 -71.68333,-11.088 -71.68333,-16.8s25.3,-16.8 71.68333,-16.8s71.68333,11.088 71.68333,16.8s-25.3,16.8 -71.68333,16.8z"/>
   <path fill="url(#svg_15)" stroke="null" id="svg_2" d="m170.66667,140.59999l8.43333,0l0,8.4l-8.43333,0l0,-8.4z"/>
   <path fill="url(#svg_15)" stroke="null" id="svg_3" d="m170.66667,186.79999l8.43333,0l0,8.4l-8.43333,0l0,-8.4z"/>
   <path fill="url(#svg_15)" stroke="null" id="svg_4" d="m170.66667,224.59999l8.43333,0l0,8.4l-8.43333,0l0,-8.4z"/>
   <path fill="url(#svg_15)" stroke="null" id="svg_5" d="m39.95,86l-16.86667,0a4.21667,4.2 0 0 0 -4.21667,4.2l0,16.8a4.21667,4.2 0 0 0 4.21667,4.2l16.86667,0a4.21667,4.2 0 0 0 4.21667,-4.2l0,-16.8a4.21667,4.2 0 0 0 -4.21667,-4.2zm-4.21667,16.8l-8.43333,0l0,-8.4l8.43333,0l0,8.4z"/>
   <path fill="url(#svg_15)" stroke="null" id="svg_6" d="m73.68333,86l-16.86667,0a4.21667,4.2 0 0 0 -4.21667,4.2l0,16.8a4.21667,4.2 0 0 0 4.21667,4.2l16.86667,0a4.21667,4.2 0 0 0 4.21667,-4.2l0,-16.8a4.21667,4.2 0 0 0 -4.21667,-4.2zm-4.21667,16.8l-8.43333,0l0,-8.4l8.43333,0l0,8.4z"/>
   <path fill="url(#svg_15)" stroke="null" id="svg_7" d="m39.95,18.8l-16.86667,0a4.21667,4.2 0 0 0 -4.21667,4.2l0,16.8a4.21667,4.2 0 0 0 4.21667,4.2l16.86667,0a4.21667,4.2 0 0 0 4.21667,-4.2l0,-16.8a4.21667,4.2 0 0 0 -4.21667,-4.2zm-4.21667,16.8l-8.43333,0l0,-8.4l8.43333,0l0,8.4z"/>
   <path fill="url(#svg_15)" stroke="null" id="svg_8" d="m73.68333,18.8l-16.86667,0a4.21667,4.2 0 0 0 -4.21667,4.2l0,16.8a4.21667,4.2 0 0 0 4.21667,4.2l16.86667,0a4.21667,4.2 0 0 0 4.21667,-4.2l0,-16.8a4.21667,4.2 0 0 0 -4.21667,-4.2zm-4.21667,16.8l-8.43333,0l0,-8.4l8.43333,0l0,8.4z"/>
   <path fill="url(#svg_15)" stroke="null" id="svg_9" d="m86.33333,18.8l59.03333,0l0,8.4l-59.03333,0l0,-8.4z"/>
   <path fill="url(#svg_15)" stroke="null" id="svg_10" d="m153.8,18.8l8.43333,0l0,8.4l-8.43333,0l0,-8.4z"/>
   <path fill="url(#svg_15)" stroke="null" id="svg_11" d="m86.33333,35.6l59.03333,0l0,8.4l-59.03333,0l0,-8.4z"/>
   <path fill="url(#svg_15)" stroke="null" id="svg_12" d="m153.8,35.6l8.43333,0l0,8.4l-8.43333,0l0,-8.4z"/>
   <path fill="url(#svg_15)" stroke="null" id="svg_13" d="m39.95,153.19999l-16.86667,0a4.21667,4.2 0 0 0 -4.21667,4.2l0,16.8a4.21667,4.2 0 0 0 4.21667,4.2l16.86667,0a4.21667,4.2 0 0 0 4.21667,-4.2l0,-16.8a4.21667,4.2 0 0 0 -4.21667,-4.2zm-4.21667,16.8l-8.43333,0l0,-8.4l8.43333,0l0,8.4z"/>
   <path fill="url(#svg_15)" stroke="null" id="svg_14" d="m73.68333,153.19999l-16.86667,0a4.21667,4.2 0 0 0 -4.21667,4.2l0,16.8a4.21667,4.2 0 0 0 4.21667,4.2l16.86667,0a4.21667,4.2 0 0 0 4.21667,-4.2l0,-16.8a4.21667,4.2 0 0 0 -4.21667,-4.2zm-4.21667,16.8l-8.43333,0l0,-8.4l8.43333,0l0,8.4z"/>
  </g>
 </g>
</svg>