<svg id="图层_1" data-name="图层 1" xmlns="http://www.w3.org/2000/svg" viewBox="0 0 1080 1080"><defs><style>.cls-1{fill:#94070a;}.cls-2{fill:#fff;}.cls-3{fill:#e8ac5d;}</style></defs><path class="cls-1" d="M793.62,734.16H286.37c-31.13,0-56.37-27.57-56.37-61.57V334c0-34,25.24-61.57,56.37-61.57h507.3C824.76,272.45,850,300,850,334V672.59c0,34-25.24,61.57-56.38,61.57Z"/><rect class="cls-2" x="275.71" y="314.34" width="528.58" height="309.91" rx="1.69"/><rect class="cls-1" x="351.4" y="770.73" width="377.19" height="36.82" rx="3.01"/><ellipse class="cls-2" cx="540" cy="680.11" rx="18.49" ry="20.19"/><path class="cls-3" d="M540,357.67A111.63,111.63,0,1,0,651.63,469.3,111.75,111.75,0,0,0,540,357.67ZM443.25,469.3a96.35,96.35,0,0,1,22.11-61.49,13.53,13.53,0,0,1,3.18,6.6c1.17,6.08-3.09,26.07,2.33,30.46,8.27,6.71,21.08,1.07,27.67,5.12s23.3,23.19,29.79,19.31c10.91-6.52-7.79-32.26-8.6-39.23-1.19-10.32,5.33-22.41,17.2-18,7.46,2.75,9,12.69,16,13.1s3.71-21.46,3.68-25c-.07-9.87,9.65-16.89,20-20.43a96.64,96.64,0,0,1,49.06,134.46c-.81-8.66-2.92-18.3-8.19-21.26-10.24-5.73-21.63-.25-29.9-9.41-3.41-3.79.88-20.72-9.4-24.79-20-7.91-36.21,8.41-41.13,21.51A38.5,38.5,0,0,0,535.24,499c.2,21-10.67,21-6.54,29.45,4.51,9.23,20.66,6,17.52,25.27a12.9,12.9,0,0,1-3.92,7.44q-2.82,1.86-5.73,3.57a28,28,0,0,1-3.33,1.07,96.85,96.85,0,0,1-90-96.48Zm0,0"/></svg>