<svg width="28" height="28" viewBox="0 0 28 28" fill="none" xmlns="http://www.w3.org/2000/svg">
<path d="M2 0.75H26.5706C26.9458 0.75 27.25 1.05418 27.25 1.42941V5.24118V7C27.25 7.69036 26.6904 8.25 26 8.25H2C1.30964 8.25 0.75 7.69036 0.75 7V2C0.75 1.30964 1.30964 0.75 2 0.75Z" stroke="#262743" stroke-width="1.5" stroke-linecap="round"/>
<ellipse cx="6.25" cy="4.50004" rx="1.25" ry="1.32353" fill="#262743"/>
<ellipse cx="10.25" cy="4.50004" rx="1.25" ry="1.32353" fill="#262743"/>
<ellipse cx="14.25" cy="4.50004" rx="1.25" ry="1.32353" fill="#262743"/>
<path d="M2 10.25H26.5706C26.9458 10.25 27.25 10.5542 27.25 10.9294V14.7412V16.5C27.25 17.1904 26.6904 17.75 26 17.75H2C1.30964 17.75 0.75 17.1904 0.75 16.5V11.5C0.75 10.8096 1.30964 10.25 2 10.25Z" stroke="#262743" stroke-width="1.5" stroke-linecap="round"/>
<ellipse cx="6.25" cy="14" rx="1.25" ry="1.32353" fill="#262743"/>
<ellipse cx="10.25" cy="14" rx="1.25" ry="1.32353" fill="#262743"/>
<ellipse cx="14.25" cy="14" rx="1.25" ry="1.32353" fill="#262743"/>
<path d="M2 19.75H26.5706C26.9458 19.75 27.25 20.0542 27.25 20.4294V24.2412V26C27.25 26.6904 26.6904 27.25 26 27.25H2C1.30964 27.25 0.75 26.6904 0.75 26V21C0.75 20.3096 1.30964 19.75 2 19.75Z" stroke="#262743" stroke-width="1.5" stroke-linecap="round"/>
<ellipse cx="6.25" cy="23.5" rx="1.25" ry="1.32353" fill="#262743"/>
<ellipse cx="10.25" cy="23.5" rx="1.25" ry="1.32353" fill="#262743"/>
<ellipse cx="14.25" cy="23.5" rx="1.25" ry="1.32353" fill="#262743"/>
</svg>
