<svg width="17" height="17" viewBox="0 0 17 17" fill="none" xmlns="http://www.w3.org/2000/svg">
<path d="M10.5303 9.03033C10.8232 8.73744 10.8232 8.26256 10.5303 7.96967L5.75736 3.1967C5.46447 2.90381 4.98959 2.90381 4.6967 3.1967C4.40381 3.48959 4.40381 3.96447 4.6967 4.25736L8.93934 8.5L4.6967 12.7426C4.40381 13.0355 4.40381 13.5104 4.6967 13.8033C4.98959 14.0962 5.46447 14.0962 5.75736 13.8033L10.5303 9.03033ZM1 7.75C0.585787 7.75 0.25 8.08579 0.25 8.5C0.25 8.91421 0.585787 9.25 1 9.25V7.75ZM10 7.75L1 7.75V9.25L10 9.25V7.75Z" fill="#262743"/>
<path d="M9 1H14C15.1046 1 16 1.89543 16 3V14C16 15.1046 15.1046 16 14 16H9" stroke="#262743" stroke-width="1.5" stroke-linecap="round" stroke-linejoin="round"/>
</svg>
