<svg id="图层_1" data-name="图层 1" xmlns="http://www.w3.org/2000/svg" viewBox="0 0 544.38 188.51"><defs><style>.cls-1{fill:#fff;}</style></defs><path class="cls-1" d="M174.89,110.11l6.57-8.8c7.51,6.24,15.19,10.4,26.07,10.4,12,0,17.92-6.4,17.92-14.4,0-9.28-10.4-13.44-20.16-17-12.32-4.48-26.07-10.24-26.07-25,0-13.44,10.71-24.16,29.27-24.16,10.24,0,19.68,4.32,26.24,9.6l-6.24,8.48c-5.92-4.32-12.16-7.68-20-7.68-11.52,0-16.8,6.08-16.8,13.12,0,8.64,9.6,12,19.52,15.52,12.64,5,26.72,9.92,26.72,26.4,0,13.76-10.88,25.28-30.88,25.28C194.73,122,183.06,116.83,174.89,110.11Z"/><path class="cls-1" d="M250.09,76.83c0-29,19.2-45.6,41.12-45.6,11.36,0,19.2,4.8,25.28,10.4l-6.88,8.64c-5.12-4.8-10.72-8-17.92-8-16.16,0-28.16,13.92-28.16,34.56,0,20.48,11.2,34.24,27.84,34.24,8.16,0,15.52-4,21-8.8l5.76,8.64a41.49,41.49,0,0,1-27.84,11C267.53,122,250.09,105.31,250.09,76.83Z"/><path class="cls-1" d="M325.13,76.83c0-29,18.56-45.6,39.68-45.6s39.84,16.64,39.84,45.6c0,28.48-18.72,45.12-39.84,45.12S325.13,105.31,325.13,76.83Zm66.08,0c0-20.64-10.88-34.56-26.4-34.56s-26.24,13.92-26.24,34.56c0,20.48,10.72,34.24,26.24,34.24S391.21,97.31,391.21,76.83Z"/><path class="cls-1" d="M414.41,33.47h13.28l13.6,51.36c1.92,8.16,3.52,15.84,5.28,23.84h.64c2.08-8,3.84-15.68,6.08-23.84l13.92-51.36h13.12l14.08,51.36c2.08,8.16,4,15.84,6.08,23.84h.64c1.92-8,3.51-15.68,5.59-23.84L520,33.47h12.48l-23.68,86.4H493L479.85,71.71c-2.4-8.32-4-16.16-6.08-25H473c-1.92,8.8-3.68,17-6.24,25.12l-12.64,48H438.73Z"/><path class="cls-1" d="M174.28,159.9l2.21-2.66a7.56,7.56,0,0,0,4.89,2.14c2,0,3.07-.86,3.07-2.22s-1.17-1.87-2.88-2.6L179,153.47c-2-.81-3.9-2.37-3.9-5.18,0-3.14,2.76-5.56,6.66-5.56a8.51,8.51,0,0,1,6,2.47l-1.95,2.42a6.1,6.1,0,0,0-4.08-1.59c-1.69,0-2.78.76-2.78,2s1.37,1.87,3,2.52l2.53,1.07c2.34,1,3.87,2.45,3.87,5.23,0,3.15-2.63,5.83-7.07,5.83A10.3,10.3,0,0,1,174.28,159.9Z"/><path class="cls-1" d="M191.69,153.68V143.09h3.85V154c0,4,1.38,5.36,3.64,5.36s3.75-1.36,3.75-5.36V143.09h3.69v10.59c0,6.4-2.73,9-7.44,9S191.69,160.08,191.69,153.68Z"/><path class="cls-1" d="M211.25,143.09h6.33c4.26,0,7.54,1.48,7.54,6,0,4.39-3.3,6.37-7.44,6.37H215.1v6.84h-3.85Zm6.17,9.37c2.65,0,3.93-1.12,3.93-3.33s-1.41-3-4.06-3H215.1v6.32Z"/><path class="cls-1" d="M228.61,143.09h11.81v3.2h-8v4.45h6.76V154h-6.76v5.15h8.25v3.22h-12.1Z"/><path class="cls-1" d="M255.09,162.34l-4-7.28h-2.68v7.28h-3.85V143.09h6.71c4,0,7.23,1.41,7.23,5.83a5.5,5.5,0,0,1-3.66,5.54l4.5,7.88ZM248.46,152H251c2.47,0,3.82-1,3.82-3.09s-1.35-2.78-3.82-2.78h-2.5Z"/><path class="cls-1" d="M267.3,152.79c0-6.34,4.08-10.06,8.95-10.06a7.85,7.85,0,0,1,5.64,2.47l-2,2.44a5,5,0,0,0-3.54-1.61c-2.91,0-5.09,2.5-5.09,6.63s2,6.72,5,6.72a5.36,5.36,0,0,0,4-1.9l2,2.39a7.77,7.77,0,0,1-6.13,2.84C271.25,162.71,267.3,159.22,267.3,152.79Z"/><path class="cls-1" d="M283.38,152.64c0-6.27,3.51-9.91,8.61-9.91s8.61,3.67,8.61,9.91-3.51,10.07-8.61,10.07S283.38,158.88,283.38,152.64Zm13.29,0c0-4.14-1.82-6.61-4.68-6.61s-4.68,2.47-4.68,6.61,1.82,6.74,4.68,6.74S296.67,156.75,296.67,152.64Z"/><path class="cls-1" d="M304.37,143.09h4.27l3.28,9c.41,1.2.78,2.47,1.17,3.72h.13c.41-1.25.75-2.52,1.17-3.72l3.2-9h4.26v19.25h-3.51v-8c0-1.82.29-4.5.47-6.32h-.1l-1.56,4.53-3,8.09H312l-3-8.09L307.44,148h-.1c.18,1.82.49,4.5.49,6.32v8h-3.46Z"/><path class="cls-1" d="M326.59,143.09h6.33c4.26,0,7.54,1.48,7.54,6,0,4.39-3.3,6.37-7.44,6.37h-2.58v6.84h-3.85Zm6.17,9.37c2.65,0,3.93-1.12,3.93-3.33s-1.41-3-4.06-3h-2.19v6.32Z"/><path class="cls-1" d="M343.84,153.68V143.09h3.85V154c0,4,1.38,5.36,3.65,5.36s3.74-1.36,3.74-5.36V143.09h3.69v10.59c0,6.4-2.73,9-7.43,9S343.84,160.08,343.84,153.68Z"/><path class="cls-1" d="M367.23,146.29h-5.41v-3.2h14.72v3.2h-5.46v16.05h-3.85Z"/><path class="cls-1" d="M379.67,143.09h3.85v19.25h-3.85Z"/><path class="cls-1" d="M388.26,143.09h3.92l5.6,10.25,1.92,4.16h.13c-.21-2-.49-4.55-.49-6.73v-7.68H403v19.25h-3.9L393.51,152l-1.95-4.14h-.13c.18,2.09.47,4.5.47,6.72v7.72h-3.64Z"/><path class="cls-1" d="M406.78,152.79c0-6.34,4.11-10.06,9.24-10.06a8.07,8.07,0,0,1,6,2.47l-2.05,2.44a5.06,5.06,0,0,0-3.77-1.61c-3.2,0-5.44,2.5-5.44,6.63s1.92,6.72,5.7,6.72a3.89,3.89,0,0,0,2.42-.73v-3.8h-3.41V151.7h6.84v8.69a9.08,9.08,0,0,1-6.24,2.32C410.76,162.71,406.78,159.22,406.78,152.79Z"/><path class="cls-1" d="M431.34,152.64c0-6.27,3.51-9.91,8.61-9.91s8.61,3.67,8.61,9.91-3.51,10.07-8.61,10.07S431.34,158.88,431.34,152.64Zm13.29,0c0-4.14-1.82-6.61-4.68-6.61s-4.68,2.47-4.68,6.61,1.82,6.74,4.68,6.74S444.63,156.75,444.63,152.64Z"/><path class="cls-1" d="M452.34,143.09h3.93l5.59,10.25,1.93,4.16h.13c-.21-2-.5-4.55-.5-6.73v-7.68h3.64v19.25h-3.9L457.59,152l-1.95-4.14h-.13c.18,2.09.47,4.5.47,6.72v7.72h-3.64Z"/><path class="cls-1" d="M475.83,143.09h3.93l1.54,9.39c.28,2,.6,4.09.88,6.14h.11c.39-2.05.8-4.13,1.22-6.14l2.23-9.39H489l2.24,9.39c.42,2,.81,4.06,1.22,6.14h.13c.29-2.08.57-4.13.86-6.14l1.51-9.39h3.67l-3.57,19.25H490.3l-2.16-9.52c-.31-1.51-.6-3-.83-4.45h-.11c-.26,1.46-.52,2.94-.83,4.45l-2.11,9.52h-4.71Z"/><path class="cls-1" d="M501.54,143.09h11.81v3.2h-8v4.45h6.76V154h-6.76v5.15h8.24v3.22H501.54Z"/><path class="cls-1" d="M517.54,143.09h6.37c4,0,7,1.15,7,4.74a4.36,4.36,0,0,1-2.63,4.16v.13a4.37,4.37,0,0,1,3.61,4.55c0,3.88-3.22,5.67-7.46,5.67h-6.87Zm6.09,7.83c2.44,0,3.51-1,3.51-2.52,0-1.69-1.14-2.37-3.46-2.37h-2.29v4.89Zm.44,8.46c2.63,0,4.06-.94,4.06-2.94s-1.41-2.66-4.06-2.66h-2.68v5.6Z"/><polygon class="cls-1" points="50.96 126.44 39.92 101.18 99.64 101.18 99.64 51.54 10.65 51.54 10.65 176.84 48.14 176.84 99.64 176.84 99.64 126.44 50.96 126.44"/><polygon class="cls-1" points="48.14 11.67 48.14 42.02 99.64 42.02 104.41 42.02 109.17 42.02 109.17 101.18 130.44 101.18 119.4 126.44 109.17 126.44 109.17 176.84 142.79 176.84 142.79 11.67 48.14 11.67"/></svg>