<svg id="图层_1" data-name="图层 1" xmlns="http://www.w3.org/2000/svg" viewBox="0 0 544.38 188.51"><defs><style>.cls-1{fill:#9b0000;}.cls-2{fill:#191919;}</style></defs><path class="cls-1" d="M175.43,109.53l6.55-8.8c7.52,6.24,15.2,10.4,26.07,10.4,12,0,17.91-6.4,17.91-14.4,0-9.27-10.39-13.43-20.15-17-12.31-4.48-26.07-10.23-26.07-25,0-13.43,10.72-24.15,29.27-24.15,10.24,0,19.67,4.32,26.23,9.6L229,48.76c-5.91-4.32-12.15-7.68-20-7.68-11.51,0-16.79,6.08-16.79,13.11,0,8.64,9.59,12,19.51,15.52,12.63,5,26.71,9.91,26.71,26.38,0,13.76-10.88,25.27-30.87,25.27A51.89,51.89,0,0,1,175.43,109.53Z"/><path class="cls-2" d="M250.59,76.26c0-28.94,19.19-45.58,41.1-45.58,11.36,0,19.2,4.8,25.27,10.4l-6.87,8.64c-5.12-4.8-10.72-8-17.92-8C276,41.72,264,55.63,264,76.26c0,20.47,11.19,34.23,27.82,34.23,8.16,0,15.52-4,20.95-8.8l5.76,8.64a41.48,41.48,0,0,1-27.82,11C268,121.36,250.59,104.73,250.59,76.26Z"/><path class="cls-2" d="M325.6,76.26c0-28.94,18.55-45.58,39.66-45.58s39.82,16.64,39.82,45.58c0,28.47-18.71,45.1-39.82,45.1S325.6,104.73,325.6,76.26Zm66,0c0-20.63-10.87-34.54-26.39-34.54S339,55.63,339,76.26c0,20.47,10.72,34.23,26.23,34.23S391.65,96.73,391.65,76.26Z"/><path class="cls-2" d="M414.84,32.92h13.27l13.6,51.34c1.92,8.16,3.52,15.83,5.28,23.83h.64c2.08-8,3.83-15.67,6.07-23.83l13.92-51.34h13.11L494.8,84.26c2.08,8.16,4,15.83,6.08,23.83h.64c1.92-8,3.52-15.67,5.6-23.83l13.27-51.34h12.48L509.2,119.28H493.37L480.25,71.15c-2.4-8.32-4-16.16-6.08-25h-.8c-1.91,8.79-3.67,16.95-6.23,25.11l-12.64,48H439.15Z"/><path class="cls-2" d="M174.81,159.29l2.21-2.65a7.6,7.6,0,0,0,4.89,2.13c2,0,3.07-.86,3.07-2.21s-1.17-1.87-2.89-2.6l-2.57-1.09c-2-.81-3.9-2.37-3.9-5.17,0-3.15,2.76-5.57,6.66-5.57a8.57,8.57,0,0,1,6,2.47L186.36,147a6.16,6.16,0,0,0-4.08-1.59c-1.69,0-2.78.76-2.78,2s1.37,1.87,3,2.52l2.52,1.07c2.34,1,3.88,2.45,3.88,5.23,0,3.14-2.63,5.82-7.07,5.82A10.26,10.26,0,0,1,174.81,159.29Z"/><path class="cls-2" d="M192.21,153.08V142.5h3.85v10.92c0,4,1.38,5.35,3.64,5.35s3.75-1.35,3.75-5.35V142.5h3.69v10.58c0,6.39-2.73,9-7.44,9S192.21,159.47,192.21,153.08Z"/><path class="cls-2" d="M211.77,142.5h6.32c4.26,0,7.54,1.48,7.54,6,0,4.39-3.3,6.37-7.44,6.37h-2.57v6.84h-3.85Zm6.16,9.36c2.66,0,3.93-1.12,3.93-3.33s-1.4-3-4.06-3h-2.18v6.32Z"/><path class="cls-2" d="M229.12,142.5h11.8v3.19H233v4.45h6.76v3.23H233v5.14h8.24v3.23H229.12Z"/><path class="cls-2" d="M255.59,161.74l-4-7.28H249v7.28h-3.85V142.5h6.71c4,0,7.23,1.4,7.23,5.82a5.51,5.51,0,0,1-3.67,5.54l4.5,7.88ZM249,151.41h2.5c2.47,0,3.82-1,3.82-3.09s-1.35-2.78-3.82-2.78H249Z"/><path class="cls-2" d="M267.79,152.19c0-6.34,4.08-10.06,8.95-10.06a7.85,7.85,0,0,1,5.64,2.47l-2,2.45a5,5,0,0,0-3.54-1.62c-2.91,0-5.09,2.5-5.09,6.63s2,6.71,5,6.71a5.34,5.34,0,0,0,4-1.9l2,2.4a7.79,7.79,0,0,1-6.13,2.83C271.74,162.1,267.79,158.62,267.79,152.19Z"/><path class="cls-2" d="M283.86,152c0-6.27,3.51-9.91,8.61-9.91s8.61,3.67,8.61,9.91-3.51,10.06-8.61,10.06S283.86,158.28,283.86,152Zm13.29,0c0-4.14-1.82-6.61-4.68-6.61s-4.68,2.47-4.68,6.61,1.82,6.73,4.68,6.73S297.15,156.15,297.15,152Z"/><path class="cls-2" d="M304.85,142.5h4.27l3.27,9c.42,1.2.78,2.47,1.17,3.72h.13c.42-1.25.76-2.52,1.17-3.72l3.2-9h4.26v19.24h-3.51v-8c0-1.82.29-4.5.47-6.32h-.1l-1.56,4.53-3,8.09h-2.21l-3-8.09-1.53-4.53h-.1c.18,1.82.49,4.5.49,6.32v8h-3.46Z"/><path class="cls-2" d="M327.06,142.5h6.32c4.26,0,7.54,1.48,7.54,6,0,4.39-3.3,6.37-7.44,6.37h-2.57v6.84h-3.85Zm6.16,9.36c2.66,0,3.93-1.12,3.93-3.33s-1.4-3-4.06-3h-2.18v6.32Z"/><path class="cls-2" d="M344.3,153.08V142.5h3.85v10.92c0,4,1.38,5.35,3.64,5.35s3.75-1.35,3.75-5.35V142.5h3.69v10.58c0,6.39-2.73,9-7.44,9S344.3,159.47,344.3,153.08Z"/><path class="cls-2" d="M367.68,145.69h-5.4V142.5H377v3.19h-5.46v16.05h-3.85Z"/><path class="cls-2" d="M380.12,142.5H384v19.24h-3.84Z"/><path class="cls-2" d="M388.7,142.5h3.93l5.59,10.24,1.92,4.16h.13c-.21-2-.49-4.55-.49-6.73V142.5h3.64v19.24h-3.9L394,151.44,392,147.31h-.13c.18,2.08.47,4.49.47,6.71v7.72H388.7Z"/><path class="cls-2" d="M407.22,152.19c0-6.34,4.1-10.06,9.23-10.06a8.11,8.11,0,0,1,5.95,2.47l-2,2.45a5.07,5.07,0,0,0-3.77-1.62c-3.2,0-5.44,2.5-5.44,6.63s1.93,6.71,5.7,6.71a3.84,3.84,0,0,0,2.41-.73v-3.79h-3.4V151.1h6.84v8.69a9.07,9.07,0,0,1-6.24,2.31C411.19,162.1,407.22,158.62,407.22,152.19Z"/><path class="cls-2" d="M431.77,152c0-6.27,3.51-9.91,8.6-9.91S449,145.8,449,152s-3.51,10.06-8.61,10.06S431.77,158.28,431.77,152Zm13.28,0c0-4.14-1.82-6.61-4.68-6.61s-4.68,2.47-4.68,6.61,1.82,6.73,4.68,6.73S445.05,156.15,445.05,152Z"/><path class="cls-2" d="M452.76,142.5h3.92l5.59,10.24,1.93,4.16h.13c-.21-2-.5-4.55-.5-6.73V142.5h3.64v19.24h-3.9L458,151.44l-1.95-4.13h-.13c.18,2.08.47,4.49.47,6.71v7.72h-3.64Z"/><path class="cls-2" d="M476.24,142.5h3.93l1.53,9.38c.29,2,.6,4.08.89,6.14h.1c.39-2.06.81-4.14,1.22-6.14l2.24-9.38h3.27l2.24,9.38c.42,2,.8,4.06,1.22,6.14H493c.29-2.08.57-4.14.86-6.14l1.51-9.38H499l-3.56,19.24H490.7l-2.16-9.52c-.31-1.51-.6-3-.83-4.45h-.11c-.26,1.46-.52,2.94-.83,4.45l-2.1,9.52H480Z"/><path class="cls-2" d="M501.94,142.5h11.8v3.19h-8v4.45h6.76v3.23h-6.76v5.14H514v3.23H501.94Z"/><path class="cls-2" d="M517.93,142.5h6.37c4,0,7,1.14,7,4.73a4.36,4.36,0,0,1-2.63,4.16v.13a4.38,4.38,0,0,1,3.62,4.55c0,3.87-3.23,5.67-7.46,5.67h-6.87Zm6.08,7.82c2.45,0,3.52-1,3.52-2.52,0-1.69-1.15-2.37-3.46-2.37h-2.29v4.89Zm.45,8.45c2.62,0,4-.93,4-2.94s-1.4-2.65-4-2.65h-2.68v5.59Z"/><polygon class="cls-1" points="51.54 125.86 40.5 100.6 100.2 100.6 100.2 50.99 11.25 50.99 11.25 176.22 48.72 176.22 100.2 176.22 100.2 125.86 51.54 125.86"/><polygon class="cls-1" points="48.72 11.13 48.72 41.46 100.2 41.46 104.97 41.46 109.73 41.46 109.73 100.6 130.99 100.6 119.95 125.86 109.73 125.86 109.73 176.22 143.34 176.22 143.34 11.13 48.72 11.13"/></svg>