<svg id="图层_1" data-name="图层 1" xmlns="http://www.w3.org/2000/svg" viewBox="0 0 1080 1080"><defs><style>.cls-1{fill:#94070a;}.cls-2{fill:#e8ac5d;}.cls-3{fill:#fff;}</style></defs><path class="cls-1" d="M793.62,830.13H286.37A56.37,56.37,0,0,1,230,773.76v-310a56.38,56.38,0,0,1,56.37-56.38h507.3A56.37,56.37,0,0,1,850,463.76v310a56.38,56.38,0,0,1-56.38,56.37Z"/><path class="cls-2" d="M342.71,311.51H737.25a56.38,56.38,0,0,1,56.37,56.38H286.37a56.35,56.35,0,0,1,56.34-56.38Z"/><path class="cls-2" d="M408.47,249.87h263c20.77,0,37.56,12.62,37.56,28.17H370.92c0-15.55,16.83-28.17,37.55-28.17Z"/><path class="cls-3" d="M510,611.26H442.52c-12,0-22.5-10.5-22.5-22.5V521.27c0-12,10.5-22.49,22.5-22.49H510c12,0,22.49,10.49,22.49,22.49v67.49c0,12-10.5,22.5-22.49,22.5Zm0,0"/><path class="cls-3" d="M510,738.73H442.52c-12,0-22.5-10.5-22.5-22.49V648.75c0-12,10.5-22.5,22.5-22.5H510c12,0,22.49,10.5,22.49,22.5v66c0,13.49-10.5,24-22.49,24Zm0,0"/><path class="cls-3" d="M604.49,738.73c-31.5,0-57-25.49-57-55.49a55.49,55.49,0,0,1,111,0c1.5,30-24,55.49-54,55.49Zm0,0"/><path class="cls-3" d="M637.48,611.26H570c-12,0-22.49-10.5-22.49-22.5V521.27c0-12,10.5-22.49,22.49-22.49h66c13.5,0,24,10.49,24,22.49v67.49c0,12-10.5,22.5-22.5,22.5Zm0,0"/></svg>