<svg width="25" height="25" viewBox="0 0 25 25" fill="none" xmlns="http://www.w3.org/2000/svg">
<path fill-rule="evenodd" clip-rule="evenodd" d="M4.90683 1.54004H19.3168C19.5929 1.54004 19.8168 1.7639 19.8168 2.04004V8.60004C19.8168 8.87618 19.5929 9.10004 19.3168 9.10004H4.90684C4.63069 9.10004 4.40683 8.87618 4.40683 8.60004V2.04004C4.40683 1.7639 4.63069 1.54004 4.90683 1.54004ZM2.90683 2.04004C2.90683 0.93547 3.80226 0.0400391 4.90683 0.0400391H19.3168C20.4213 0.0400391 21.3168 0.93547 21.3168 2.04004V8.60004C21.3168 9.70461 20.4213 10.6 19.3168 10.6H12.8618V12.25H20.1957C21.1622 12.25 21.9457 13.0335 21.9457 14V14.0347C21.6985 14.0118 21.4483 14.0001 21.1956 14.0001C20.943 14.0001 20.6928 14.0118 20.4457 14.0347V14C20.4457 13.862 20.3337 13.75 20.1957 13.75H12.8618L12.8618 18.1429H13.5723C13.7516 18.1429 13.9254 18.1665 14.0908 18.2107C13.8427 18.6637 13.6375 19.1428 13.4808 19.6429H10.6513C10.3751 19.6429 10.1513 19.8668 10.1513 20.1429V23C10.1513 23.2762 10.3751 23.5 10.6513 23.5H13.2643C13.3644 24.0178 13.5153 24.518 13.7115 24.9953C13.6655 24.9984 13.6191 25 13.5723 25H10.6513C9.54672 25 8.65129 24.1046 8.65129 23V20.1429C8.65129 19.0383 9.54672 18.1429 10.6513 18.1429H11.3618L11.3618 13.75H4.02795C3.88988 13.75 3.77795 13.862 3.77795 14V18.1429H4.92103C6.0256 18.1429 6.92103 19.0383 6.92103 20.1429V23C6.92103 24.1046 6.0256 25 4.92103 25H2C0.895429 25 0 24.1046 0 23V20.1429C0 19.0383 0.895431 18.1429 2 18.1429H2.27795V14C2.27795 13.0335 3.06145 12.25 4.02795 12.25H11.3618V10.6H4.90684C3.80227 10.6 2.90683 9.70461 2.90683 8.60004V2.04004ZM2 19.6429H4.92103C5.19717 19.6429 5.42103 19.8668 5.42103 20.1429V23C5.42103 23.2762 5.19717 23.5 4.92103 23.5H2C1.72386 23.5 1.5 23.2762 1.5 23V20.1429C1.5 19.8668 1.72386 19.6429 2 19.6429ZM6.03261 3.88004C6.03261 3.46583 6.3684 3.13004 6.78261 3.13004L13.5652 3.13004C13.9794 3.13004 14.3152 3.46583 14.3152 3.88004C14.3152 4.29425 13.9794 4.63004 13.5652 4.63004L6.78261 4.63004C6.3684 4.63004 6.03261 4.29425 6.03261 3.88004Z" fill="#000"/>
<path d="M19 21.6071L20.8351 23.75L24.0466 20" stroke="#6B747F" stroke-width="1.5" stroke-linecap="round" stroke-linejoin="round"/>
</svg>
