<svg width="25" height="25" viewBox="0 0 25 25" fill="none" xmlns="http://www.w3.org/2000/svg">
<path fill-rule="evenodd" clip-rule="evenodd" d="M23.4999 1.5H1.99988C1.72373 1.5 1.49988 1.72386 1.49988 2V6.03571C1.49988 6.31186 1.72374 6.53571 1.99988 6.53571H22.9999C23.276 6.53571 23.4999 6.31186 23.4999 6.03571V4.67962V1.5ZM1.99988 0H23.7236C24.4285 0 24.9999 0.571401 24.9999 1.27626V4.67962V6.03571C24.9999 7.14028 24.1044 8.03571 22.9999 8.03571H1.99988C0.895308 8.03571 -0.00012207 7.14028 -0.00012207 6.03571V2C-0.00012207 0.895429 0.895308 0 1.99988 0ZM6.69631 4.01786C6.69631 4.6705 6.19662 5.19958 5.58024 5.19958C4.96385 5.19958 4.46416 4.6705 4.46416 4.01786C4.46416 3.36521 4.96385 2.83613 5.58024 2.83613C6.19662 2.83613 6.69631 3.36521 6.69631 4.01786ZM9.15166 5.19958C9.76805 5.19958 10.2677 4.6705 10.2677 4.01786C10.2677 3.36521 9.76805 2.83613 9.15166 2.83613C8.53528 2.83613 8.03559 3.36521 8.03559 4.01786C8.03559 4.6705 8.53528 5.19958 9.15166 5.19958ZM13.8392 4.01786C13.8392 4.6705 13.3395 5.19958 12.7231 5.19958C12.1067 5.19958 11.607 4.6705 11.607 4.01786C11.607 3.36521 12.1067 2.83613 12.7231 2.83613C13.3395 2.83613 13.8392 3.36521 13.8392 4.01786ZM1.99988 9.98214H23.4999V13.1618V14.1039C24.0173 14.1878 24.519 14.3209 24.9999 14.4983V13.1618V9.7584C24.9999 9.05354 24.4285 8.48214 23.7236 8.48214H1.99988C0.895308 8.48214 -0.00012207 9.37757 -0.00012207 10.4821V14.5179C-0.00012207 15.6224 0.895308 16.5179 1.99988 16.5179H16.339C16.9038 15.9257 17.5579 15.4186 18.2787 15.0179H1.99988C1.72374 15.0179 1.49988 14.794 1.49988 14.5179V10.4821C1.49988 10.206 1.72373 9.98214 1.99988 9.98214ZM15.9434 16.9643H1.99988C0.895308 16.9643 -0.00012207 17.8597 -0.00012207 18.9643V23C-0.00012207 24.1046 0.895308 25 1.99988 25H14.7227C14.5255 24.5213 14.3739 24.0195 14.2735 23.5H1.99988C1.72374 23.5 1.49988 23.2761 1.49988 23V18.9643C1.49988 18.6881 1.72373 18.4643 1.99988 18.4643H14.967C15.2363 17.9275 15.5647 17.4247 15.9434 16.9643ZM6.69631 12.5C6.69631 13.1526 6.19662 13.6817 5.58024 13.6817C4.96385 13.6817 4.46416 13.1526 4.46416 12.5C4.46416 11.8474 4.96385 11.3183 5.58024 11.3183C6.19662 11.3183 6.69631 11.8474 6.69631 12.5ZM9.15166 13.6817C9.76805 13.6817 10.2677 13.1526 10.2677 12.5C10.2677 11.8474 9.76805 11.3183 9.15166 11.3183C8.53528 11.3183 8.03559 11.8474 8.03559 12.5C8.03559 13.1526 8.53528 13.6817 9.15166 13.6817ZM13.8392 12.5C13.8392 13.1526 13.3395 13.6817 12.7231 13.6817C12.1067 13.6817 11.607 13.1526 11.607 12.5C11.607 11.8474 12.1067 11.3183 12.7231 11.3183C13.3395 11.3183 13.8392 11.8474 13.8392 12.5ZM6.69631 20.9821C6.69631 21.6348 6.19662 22.1639 5.58024 22.1639C4.96385 22.1639 4.46416 21.6348 4.46416 20.9821C4.46416 20.3295 4.96385 19.8004 5.58024 19.8004C6.19662 19.8004 6.69631 20.3295 6.69631 20.9821ZM9.15166 22.1639C9.76805 22.1639 10.2677 21.6348 10.2677 20.9821C10.2677 20.3295 9.76805 19.8004 9.15166 19.8004C8.53528 19.8004 8.03559 20.3295 8.03559 20.9821C8.03559 21.6348 8.53528 22.1639 9.15166 22.1639ZM13.8392 20.9821C13.8392 21.6348 13.3395 22.1639 12.7231 22.1639C12.1067 22.1639 11.607 21.6348 11.607 20.9821C11.607 20.3295 12.1067 19.8004 12.7231 19.8004C13.3395 19.8004 13.8392 20.3295 13.8392 20.9821Z" fill="#000"/>
<path d="M19.177 21.6071L21.0121 23.75L24.2236 20" stroke="#6B747F" stroke-width="1.5" stroke-linecap="round" stroke-linejoin="round"/>
</svg>
