<?xml version="1.0" standalone="no"?><!DOCTYPE svg PUBLIC "-//W3C//DTD SVG 1.1//EN" "http://www.w3.org/Graphics/SVG/1.1/DTD/svg11.dtd"><svg t="1637650965872" class="icon" viewBox="0 0 1024 1024" version="1.1" xmlns="http://www.w3.org/2000/svg" p-id="2465" xmlns:xlink="http://www.w3.org/1999/xlink" width="200" height="200"><defs><style type="text/css"></style></defs><path d="M736 512c123.52 0 224 100.48 224 224S859.52 960 736 960 512 859.52 512 736s100.48-224 224-224z m0-64a288 288 0 1 0 0 576 288 288 0 0 0 0-576z m156.416 245.824l-44.864-45.696-142.528 139.904-75.584-74.816-44.992 45.504 120.448 119.168 187.52-184.064z m-164.16-309.44c2.048-0.064 4.032-0.32 6.144-0.32l-1.6-0.064c-1.536 0-3.008 0.384-4.544 0.384zM732.8 384l1.6 0.064L736 384c4.352 0 8.576 0.512 12.928 0.64C759.872 354.432 766.4 322.112 766.4 288a288 288 0 1 0-576 0c0 105.472 57.408 196.8 142.08 246.976A480 480 0 0 0 0 960h64a416.192 416.192 0 0 1 353.216-379.008c12.48-25.344 27.712-49.088 45.632-70.528C346.688 502.336 254.4 406.208 254.4 288c0-123.52 100.48-224 223.936-224S702.4 164.48 702.4 288a221.44 221.44 0 0 1-25.088 100.8c2.432-0.384 4.992-0.32 7.36-0.64 14.272-2.112 28.8-3.456 43.584-3.776 1.536 0 3.008-0.384 4.544-0.384z m1.6 0.064c4.864 0.064 9.664 0.512 14.464 0.704l0.064-0.128c-4.352-0.128-8.576-0.64-12.928-0.64l-1.6 0.064z m-6.144 0.32z" fill="#333333" p-id="2466"></path></svg>