
<svg xmlns="http://www.w3.org/2000/svg" xmlns:xlink="http://www.w3.org/1999/xlink" version="1.1" width="256" height="256" viewBox="0 0 256 256" xml:space="preserve">

<defs>
</defs>
<g style="stroke: none; stroke-width: 0; stroke-dasharray: none; stroke-linecap: butt; stroke-linejoin: miter; stroke-miterlimit: 10; fill: none; fill-rule: nonzero; opacity: 1;" transform="translate(1.4065934065934016 1.4065934065934016) scale(2.81 2.81)" >
	<path d="M 45 71.188 c -14.44 0 -26.188 -11.748 -26.188 -26.188 c 0 -14.44 11.748 -26.188 26.188 -26.188 c 14.439 0 26.188 11.748 26.188 26.188 c 0 4.725 -1.272 9.355 -3.679 13.392 C 62.804 66.284 54.179 71.188 45 71.188 z M 45 22.813 c -12.234 0 -22.188 9.953 -22.188 22.188 S 32.766 67.188 45 67.188 c 7.777 0 15.086 -4.155 19.073 -10.845 c 2.037 -3.417 3.114 -7.339 3.114 -11.343 C 67.188 32.766 57.234 22.813 45 22.813 z" style="stroke: none; stroke-width: 1; stroke-dasharray: none; stroke-linecap: butt; stroke-linejoin: miter; stroke-miterlimit: 10; fill: rgb(0,0,0); fill-rule: nonzero; opacity: 1;" transform=" matrix(1 0 0 1 0 0) " stroke-linecap="round" />
	<path d="M 45 14.864 c -1.104 0 -2 -0.896 -2 -2 V 2 c 0 -1.104 0.896 -2 2 -2 s 2 0.896 2 2 v 10.864 C 47 13.968 46.104 14.864 45 14.864 z" style="stroke: none; stroke-width: 1; stroke-dasharray: none; stroke-linecap: butt; stroke-linejoin: miter; stroke-miterlimit: 10; fill: rgb(0,0,0); fill-rule: nonzero; opacity: 1;" transform=" matrix(1 0 0 1 0 0) " stroke-linecap="round" />
	<path d="M 45 90 c -1.104 0 -2 -0.896 -2 -2 V 77.137 c 0 -1.104 0.896 -2 2 -2 s 2 0.896 2 2 V 88 C 47 89.104 46.104 90 45 90 z" style="stroke: none; stroke-width: 1; stroke-dasharray: none; stroke-linecap: butt; stroke-linejoin: miter; stroke-miterlimit: 10; fill: rgb(0,0,0); fill-rule: nonzero; opacity: 1;" transform=" matrix(1 0 0 1 0 0) " stroke-linecap="round" />
	<path d="M 12.864 47 H 2 c -1.104 0 -2 -0.896 -2 -2 s 0.896 -2 2 -2 h 10.864 c 1.104 0 2 0.896 2 2 S 13.968 47 12.864 47 z" style="stroke: none; stroke-width: 1; stroke-dasharray: none; stroke-linecap: butt; stroke-linejoin: miter; stroke-miterlimit: 10; fill: rgb(0,0,0); fill-rule: nonzero; opacity: 1;" transform=" matrix(1 0 0 1 0 0) " stroke-linecap="round" />
	<path d="M 88 47 H 77.137 c -1.104 0 -2 -0.896 -2 -2 s 0.896 -2 2 -2 H 88 c 1.104 0 2 0.896 2 2 S 89.104 47 88 47 z" style="stroke: none; stroke-width: 1; stroke-dasharray: none; stroke-linecap: butt; stroke-linejoin: miter; stroke-miterlimit: 10; fill: rgb(0,0,0); fill-rule: nonzero; opacity: 1;" transform=" matrix(1 0 0 1 0 0) " stroke-linecap="round" />
	<path d="M 67.724 24.276 c -0.512 0 -1.023 -0.195 -1.414 -0.586 c -0.781 -0.781 -0.781 -2.047 0 -2.828 l 7.682 -7.682 c 0.781 -0.781 2.047 -0.781 2.828 0 c 0.781 0.781 0.781 2.047 0 2.828 l -7.682 7.682 C 68.747 24.081 68.235 24.276 67.724 24.276 z" style="stroke: none; stroke-width: 1; stroke-dasharray: none; stroke-linecap: butt; stroke-linejoin: miter; stroke-miterlimit: 10; fill: rgb(0,0,0); fill-rule: nonzero; opacity: 1;" transform=" matrix(1 0 0 1 0 0) " stroke-linecap="round" />
	<path d="M 14.594 77.405 c -0.512 0 -1.024 -0.195 -1.414 -0.586 c -0.781 -0.781 -0.781 -2.047 0 -2.828 l 7.682 -7.682 c 0.781 -0.781 2.048 -0.781 2.828 0 c 0.781 0.781 0.781 2.047 0 2.828 l -7.682 7.682 C 15.618 77.21 15.106 77.405 14.594 77.405 z" style="stroke: none; stroke-width: 1; stroke-dasharray: none; stroke-linecap: butt; stroke-linejoin: miter; stroke-miterlimit: 10; fill: rgb(0,0,0); fill-rule: nonzero; opacity: 1;" transform=" matrix(1 0 0 1 0 0) " stroke-linecap="round" />
	<path d="M 22.276 24.276 c -0.512 0 -1.024 -0.195 -1.414 -0.586 l -7.682 -7.682 c -0.781 -0.781 -0.781 -2.047 0 -2.828 c 0.78 -0.781 2.048 -0.781 2.828 0 l 7.682 7.682 c 0.781 0.781 0.781 2.047 0 2.828 C 23.3 24.081 22.788 24.276 22.276 24.276 z" style="stroke: none; stroke-width: 1; stroke-dasharray: none; stroke-linecap: butt; stroke-linejoin: miter; stroke-miterlimit: 10; fill: rgb(0,0,0); fill-rule: nonzero; opacity: 1;" transform=" matrix(1 0 0 1 0 0) " stroke-linecap="round" />
	<path d="M 75.405 77.405 c -0.512 0 -1.023 -0.195 -1.414 -0.586 l -7.682 -7.682 c -0.781 -0.781 -0.781 -2.047 0 -2.828 s 2.047 -0.781 2.828 0 l 7.682 7.682 c 0.781 0.781 0.781 2.047 0 2.828 C 76.429 77.21 75.917 77.405 75.405 77.405 z" style="stroke: none; stroke-width: 1; stroke-dasharray: none; stroke-linecap: butt; stroke-linejoin: miter; stroke-miterlimit: 10; fill: rgb(0,0,0); fill-rule: nonzero; opacity: 1;" transform=" matrix(1 0 0 1 0 0) " stroke-linecap="round" />
	<path d="M 32.703 17.311 c -0.785 0 -1.53 -0.465 -1.849 -1.235 L 26.697 6.039 c -0.423 -1.021 0.062 -2.19 1.082 -2.613 c 1.022 -0.422 2.19 0.062 2.613 1.082 l 4.158 10.037 c 0.423 1.021 -0.062 2.19 -1.082 2.613 C 33.217 17.261 32.958 17.311 32.703 17.311 z" style="stroke: none; stroke-width: 1; stroke-dasharray: none; stroke-linecap: butt; stroke-linejoin: miter; stroke-miterlimit: 10; fill: rgb(0,0,0); fill-rule: nonzero; opacity: 1;" transform=" matrix(1 0 0 1 0 0) " stroke-linecap="round" />
	<path d="M 61.456 86.728 c -0.785 0 -1.529 -0.466 -1.849 -1.235 L 55.45 75.456 c -0.423 -1.021 0.062 -2.19 1.082 -2.613 c 1.023 -0.422 2.19 0.063 2.613 1.082 l 4.157 10.036 c 0.423 1.021 -0.062 2.19 -1.082 2.613 C 61.97 86.678 61.711 86.728 61.456 86.728 z" style="stroke: none; stroke-width: 1; stroke-dasharray: none; stroke-linecap: butt; stroke-linejoin: miter; stroke-miterlimit: 10; fill: rgb(0,0,0); fill-rule: nonzero; opacity: 1;" transform=" matrix(1 0 0 1 0 0) " stroke-linecap="round" />
	<path d="M 5.274 63.456 c -0.785 0 -1.53 -0.466 -1.849 -1.235 c -0.423 -1.021 0.062 -2.19 1.083 -2.613 l 10.037 -4.157 c 1.021 -0.423 2.19 0.063 2.613 1.082 c 0.423 1.021 -0.062 2.19 -1.083 2.613 L 6.038 63.303 C 5.788 63.406 5.529 63.456 5.274 63.456 z" style="stroke: none; stroke-width: 1; stroke-dasharray: none; stroke-linecap: butt; stroke-linejoin: miter; stroke-miterlimit: 10; fill: rgb(0,0,0); fill-rule: nonzero; opacity: 1;" transform=" matrix(1 0 0 1 0 0) " stroke-linecap="round" />
	<path d="M 74.691 34.703 c -0.785 0 -1.529 -0.465 -1.849 -1.235 c -0.423 -1.021 0.062 -2.19 1.082 -2.613 l 10.036 -4.158 c 1.021 -0.422 2.189 0.062 2.613 1.082 c 0.423 1.021 -0.062 2.19 -1.082 2.613 L 75.456 34.55 C 75.206 34.653 74.946 34.703 74.691 34.703 z" style="stroke: none; stroke-width: 1; stroke-dasharray: none; stroke-linecap: butt; stroke-linejoin: miter; stroke-miterlimit: 10; fill: rgb(0,0,0); fill-rule: nonzero; opacity: 1;" transform=" matrix(1 0 0 1 0 0) " stroke-linecap="round" />
	<path d="M 57.297 17.311 c -0.255 0 -0.514 -0.049 -0.765 -0.153 c -1.021 -0.422 -1.505 -1.592 -1.082 -2.613 l 4.157 -10.037 c 0.423 -1.021 1.588 -1.506 2.613 -1.083 c 1.021 0.422 1.505 1.592 1.082 2.613 l -4.157 10.037 C 58.826 16.846 58.082 17.311 57.297 17.311 z" style="stroke: none; stroke-width: 1; stroke-dasharray: none; stroke-linecap: butt; stroke-linejoin: miter; stroke-miterlimit: 10; fill: rgb(0,0,0); fill-rule: nonzero; opacity: 1;" transform=" matrix(1 0 0 1 0 0) " stroke-linecap="round" />
	<path d="M 28.543 86.728 c -0.255 0 -0.514 -0.05 -0.765 -0.153 c -1.021 -0.423 -1.505 -1.593 -1.082 -2.613 l 4.158 -10.036 c 0.422 -1.02 1.591 -1.504 2.613 -1.082 c 1.021 0.423 1.505 1.593 1.082 2.613 l -4.158 10.036 C 30.073 86.262 29.329 86.728 28.543 86.728 z" style="stroke: none; stroke-width: 1; stroke-dasharray: none; stroke-linecap: butt; stroke-linejoin: miter; stroke-miterlimit: 10; fill: rgb(0,0,0); fill-rule: nonzero; opacity: 1;" transform=" matrix(1 0 0 1 0 0) " stroke-linecap="round" />
	<path d="M 15.309 34.703 c -0.255 0 -0.514 -0.049 -0.765 -0.153 L 4.507 30.392 c -1.02 -0.423 -1.505 -1.593 -1.082 -2.613 c 0.422 -1.02 1.59 -1.506 2.613 -1.082 l 10.037 4.158 c 1.02 0.423 1.505 1.593 1.082 2.613 C 16.839 34.238 16.094 34.703 15.309 34.703 z" style="stroke: none; stroke-width: 1; stroke-dasharray: none; stroke-linecap: butt; stroke-linejoin: miter; stroke-miterlimit: 10; fill: rgb(0,0,0); fill-rule: nonzero; opacity: 1;" transform=" matrix(1 0 0 1 0 0) " stroke-linecap="round" />
	<path d="M 84.726 63.456 c -0.255 0 -0.514 -0.05 -0.765 -0.153 l -10.036 -4.157 c -1.021 -0.423 -1.505 -1.593 -1.082 -2.613 c 0.423 -1.02 1.589 -1.505 2.613 -1.082 l 10.036 4.157 c 1.021 0.423 1.505 1.593 1.082 2.613 C 86.255 62.99 85.511 63.456 84.726 63.456 z" style="stroke: none; stroke-width: 1; stroke-dasharray: none; stroke-linecap: butt; stroke-linejoin: miter; stroke-miterlimit: 10; fill: rgb(0,0,0); fill-rule: nonzero; opacity: 1;" transform=" matrix(1 0 0 1 0 0) " stroke-linecap="round" />
</g>
</svg>
