<svg width="25" height="22" viewBox="0 0 25 22" fill="none" xmlns="http://www.w3.org/2000/svg">
<path fill-rule="evenodd" clip-rule="evenodd" d="M13.0435 1.08696C13.0435 0.486647 12.5568 0 11.9565 0C11.9277 0 11.8991 0.00112506 11.8708 0.00333371H2C0.895431 0.00333371 0 0.898763 0 2.00333V19.7358C0 20.8404 0.895431 21.7358 2 21.7358H11.8709C11.8992 21.738 11.9277 21.7391 11.9565 21.7391C12.5568 21.7391 13.0435 21.2525 13.0435 20.6522L13.0435 1.08696ZM10.8696 19.7358L10.8696 8.6921L2 2.88076V19.7358H10.8696ZM10.8696 6.27131V2.00333H4.35556L10.8696 6.27131ZM16.1304 2V13.2174H23V2H16.1304ZM15.1304 0C14.5781 0 14.1304 0.447716 14.1304 1V14.2174C14.1304 14.7697 14.5781 15.2174 15.1304 15.2174H24C24.5523 15.2174 25 14.7697 25 14.2174V1C25 0.447715 24.5523 0 24 0H15.1304ZM16.1304 19.7391V18.3043H23V19.7391H16.1304ZM14.1304 17.3043C14.1304 16.7521 14.5781 16.3043 15.1304 16.3043H24C24.5523 16.3043 25 16.7521 25 17.3043V20.7391C25 21.2914 24.5523 21.7391 24 21.7391H15.1304C14.5781 21.7391 14.1304 21.2914 14.1304 20.7391V17.3043Z" fill="#262743"/>
</svg>
