<svg width="24" height="29" viewBox="0 0 24 29" fill="none" xmlns="http://www.w3.org/2000/svg">
<path d="M16.4167 24C16.4167 26.1711 14.5714 28 12.2083 28C9.84527 28 8 26.1711 8 24C8 21.8289 9.84527 20 12.2083 20C14.5714 20 16.4167 21.8289 16.4167 24Z" stroke="#262743" stroke-width="2"/>
<path d="M14.25 3C14.25 4.06649 13.3375 5 12.125 5C10.9125 5 10 4.06649 10 3C10 1.93351 10.9125 1 12.125 1C13.3375 1 14.25 1.93351 14.25 3Z" fill="white" stroke="#262743" stroke-width="2"/>
<mask id="path-3-inside-1_3002_4687" fill="white">
<path fill-rule="evenodd" clip-rule="evenodd" d="M2.04938 12C2.5511 6.94668 6.81465 3 12 3C17.1853 3 21.4489 6.94668 21.9506 12H22V13V14V19.1707C23.1652 19.5825 24 20.6938 24 22C24 23.6569 22.6569 25 21 25H3C1.34315 25 0 23.6569 0 22C0 20.6938 0.834808 19.5825 2 19.1707V14V13V12H2.04938Z"/>
</mask>
<path fill-rule="evenodd" clip-rule="evenodd" d="M2.04938 12C2.5511 6.94668 6.81465 3 12 3C17.1853 3 21.4489 6.94668 21.9506 12H22V13V14V19.1707C23.1652 19.5825 24 20.6938 24 22C24 23.6569 22.6569 25 21 25H3C1.34315 25 0 23.6569 0 22C0 20.6938 0.834808 19.5825 2 19.1707V14V13V12H2.04938Z" fill="white"/>
<path d="M2.04938 12V14H3.86064L4.03959 12.1976L2.04938 12ZM21.9506 12L19.9604 12.1976L20.1394 14H21.9506V12ZM22 12H24V10H22V12ZM22 19.1707H20V20.5851L21.3335 21.0564L22 19.1707ZM2 19.1707L2.66649 21.0564L4 20.5851V19.1707H2ZM2 12V10H2.38419e-07V12H2ZM12 1C5.77638 1 0.661442 5.73628 0.0591607 11.8024L4.03959 12.1976C4.44076 8.15708 7.85293 5 12 5V1ZM23.9408 11.8024C23.3386 5.73628 18.2236 1 12 1V5C16.1471 5 19.5592 8.15708 19.9604 12.1976L23.9408 11.8024ZM22 10H21.9506V14H22V10ZM24 13V12H20V13H24ZM24 14V13H20V14H24ZM24 19.1707V14H20V19.1707H24ZM21.3335 21.0564C21.7246 21.1946 22 21.5677 22 22H26C26 19.8198 24.6058 17.9705 22.6665 17.285L21.3335 21.0564ZM22 22C22 22.5523 21.5523 23 21 23V27C23.7614 27 26 24.7614 26 22H22ZM21 23H3V27H21V23ZM3 23C2.44771 23 2 22.5523 2 22H-2C-2 24.7614 0.238576 27 3 27V23ZM2 22C2 21.5677 2.2754 21.1946 2.66649 21.0564L1.33351 17.285C-0.605782 17.9705 -2 19.8198 -2 22H2ZM2.38419e-07 14V19.1707H4V14H2.38419e-07ZM2.38419e-07 13V14H4V13H2.38419e-07ZM2.38419e-07 12V13H4V12H2.38419e-07ZM2.04938 10H2V14H2.04938V10Z" fill="#262743" mask="url(#path-3-inside-1_3002_4687)"/>
</svg>
