<svg width="25" height="22" viewBox="0 0 25 22" fill="none" xmlns="http://www.w3.org/2000/svg">
<path fill-rule="evenodd" clip-rule="evenodd" d="M3.04163 0.00305176C1.38477 0.00305176 0.041626 1.34619 0.041626 3.00305V18.9969C0.041626 20.6538 1.38477 21.9969 3.04163 21.9969H13.3814C13.9337 21.9969 14.3814 21.5492 14.3814 20.9969C14.3814 20.4446 13.9337 19.9969 13.3814 19.9969H3.04163C2.48934 19.9969 2.04163 19.5492 2.04163 18.9969V3.17536L11.6543 9.49286C12.3355 9.94054 13.2202 9.93003 13.8906 9.46627L22.9583 3.19326V12.3778C22.9583 12.93 23.406 13.3778 23.9583 13.3778C24.5106 13.3778 24.9583 12.93 24.9583 12.3778V3.00305C24.9583 1.3462 23.6152 0.00305176 21.9583 0.00305176H3.04163ZM21.1634 2.00305H3.89941L12.7527 7.8215L21.1634 2.00305ZM17.548 21.4799C17.2836 21.4799 17.0386 21.3406 16.9034 21.1133L14.9804 17.88C14.8437 17.6503 14.8397 17.3652 14.9697 17.1317L16.8928 13.678C17.0251 13.4402 17.2759 13.2928 17.548 13.2928H22.1955C22.4773 13.2928 22.7354 13.4509 22.8635 13.7019L24.6263 17.1556C24.7389 17.3762 24.7353 17.6382 24.6168 17.8556L22.854 21.0889C22.7226 21.3299 22.47 21.4799 22.1955 21.4799H17.548ZM16.4903 17.4843L17.9746 19.9799H21.7502L23.1104 17.4851L21.7362 14.7928H17.9889L16.4903 17.4843ZM21.1805 17.3864C21.1805 16.6477 20.5587 16.049 19.7916 16.049C19.0246 16.049 18.4027 16.6477 18.4027 17.3864C18.4027 18.125 19.0246 18.7238 19.7916 18.7238C20.5587 18.7238 21.1805 18.125 21.1805 17.3864Z" fill="#262743"/>
</svg>
