<svg width="28" height="25" viewBox="0 0 28 25" fill="none" xmlns="http://www.w3.org/2000/svg">
<path fill-rule="evenodd" clip-rule="evenodd" d="M23 1C23 0.447715 22.5523 0 22 0C21.4477 0 21 0.447716 21 1V4.00336C21 4.55565 21.4477 5.00336 22 5.00336C22.5523 5.00336 23 4.55565 23 4.00336V1ZM26 20.0147V15.0107V11.5095V11.0066C26 10.4544 25.5523 10.0066 25 10.0066C24.4477 10.0066 24 10.4544 24 11.0066V11.9891V15.0107V20.0147H9.10807H8.40048L7.85032 20.4597L7.33018 20.8804L7.4664 20.0147H5.12709H2V4.00128H13.9483C13.9657 4.00218 13.9831 4.00263 14.0007 4.00263H17.9993C18.552 4.00263 19 3.55461 19 3.00196C19 2.45677 18.564 2.01341 18.0217 2.00153L18.0218 2.00128H17.9993H14.0007H2C0.895431 2.00128 0 2.89672 0 4.00129V20.0147C0 21.1193 0.89543 22.0147 2 22.0147H3.10248H5.12709L5.01032 22.7568L4.96927 23.0177L4.81867 23.9748L4.81238 24.0147L4.74856 24.4203C4.67738 24.8727 5.20081 25.1751 5.55668 24.8872L5.90829 24.6028L6.6606 23.9943L6.86639 23.8279L9.10807 22.0147H24C25.1046 22.0147 26 21.1193 26 20.0147ZM17.9993 11.0074C18.552 11.0074 19 10.5594 19 10.0067C19 9.45407 18.552 9.00605 17.9993 9.00605L6.00067 9.00605C5.44802 9.00605 5 9.45407 5 10.0067C5 10.5594 5.44802 11.0074 6.00067 11.0074L17.9993 11.0074ZM14 14.0094C14 14.5621 13.552 15.0101 12.9993 15.0101L6.00067 15.0101C5.44802 15.0101 5 14.5621 5 14.0094C5 13.4568 5.44802 13.0087 6.00067 13.0087H12.9993C13.552 13.0087 14 13.4568 14 14.0094ZM28 7.00471C28 7.55736 27.552 8.00538 26.9993 8.00538H25.0007C24.448 8.00538 24 7.55736 24 7.00471C24 6.45205 24.448 6.00404 25.0007 6.00404H26.9993C27.552 6.00404 28 6.45205 28 7.00471ZM26.5356 4.12406C26.9261 3.73328 26.9261 3.09969 26.5356 2.7089C26.145 2.31811 25.5119 2.31811 25.1214 2.7089L23.7071 4.12406C23.3166 4.51485 23.3166 5.14844 23.7071 5.53923C24.0977 5.93001 24.7308 5.93001 25.1214 5.53923L26.5356 4.12406Z" fill="#262743"/>
</svg>
