<svg width="25" height="22" viewBox="0 0 25 22" fill="none" xmlns="http://www.w3.org/2000/svg">
<path fill-rule="evenodd" clip-rule="evenodd" d="M0.0032959 3C0.0032959 1.34315 1.34644 0 3.0033 0H21.9966C23.6535 0 24.9966 1.34314 24.9966 3V12.34C24.9966 12.8923 24.5489 13.34 23.9966 13.34C23.4443 13.34 22.9966 12.8923 22.9966 12.34V3.18245L13.8866 9.44452C13.2184 9.90382 12.3391 9.91425 11.6602 9.47092L2.0033 3.16483V18.9329C2.0033 19.4851 2.45101 19.9329 3.0033 19.9329H13.3844C13.9367 19.9329 14.3844 20.3806 14.3844 20.9329C14.3844 21.4851 13.9367 21.9329 13.3844 21.9329H3.0033C1.34644 21.9329 0.0032959 20.5897 0.0032959 18.9329V3ZM3.87743 2H21.1862L12.7537 7.79635L3.87743 2ZM22.4966 17.5C22.4966 19.0951 21.1256 20.5 19.2934 20.5C17.4612 20.5 16.0903 19.0951 16.0903 17.5C16.0903 15.9049 17.4612 14.5 19.2934 14.5C21.1256 14.5 22.4966 15.9049 22.4966 17.5ZM23.9966 17.5C23.9966 19.9853 21.8909 22 19.2934 22C16.6959 22 14.5903 19.9853 14.5903 17.5C14.5903 15.0147 16.6959 13 19.2934 13C21.8909 13 23.9966 15.0147 23.9966 17.5ZM16.8121 17.5C16.8121 17.1686 17.0807 16.9 17.4121 16.9H19.6796L19.3489 16.5835C19.1094 16.3544 19.101 15.9746 19.3301 15.7352C19.5592 15.4958 19.939 15.4874 20.1785 15.7165L21.2118 16.7052C21.6645 17.1384 21.6645 17.8616 21.2118 18.2948L20.1785 19.2835C19.939 19.5126 19.5592 19.5042 19.3301 19.2648C19.101 19.0254 19.1094 18.6456 19.3489 18.4165L19.6796 18.1H17.4121C17.0807 18.1 16.8121 17.8314 16.8121 17.5Z" fill="#262743"/>
</svg>
