<svg width="25" height="22" viewBox="0 0 25 22" fill="none" xmlns="http://www.w3.org/2000/svg">
<path fill-rule="evenodd" clip-rule="evenodd" d="M0 3C0 1.34315 1.34315 0 3 0H21C22.6569 0 24 1.34315 24 3V12.34C24 12.8923 23.5523 13.34 23 13.34C22.4477 13.34 22 12.8923 22 12.34V3.23131L13.4086 9.40354C12.7257 9.89417 11.8088 9.90522 11.1143 9.43119L2 3.2107V18.9329C2 19.4851 2.44772 19.9329 3 19.9329H12.8462C13.3985 19.9329 13.8462 20.3806 13.8462 20.9329C13.8462 21.4851 13.3985 21.9329 12.8462 21.9329H3C1.34315 21.9329 0 20.5897 0 18.9329V3ZM3.77393 2L12.2417 7.77926L20.2861 2H3.77393ZM24.2213 21.5237C24.6727 21.5237 25.0429 21.1569 24.9976 20.7078C24.9179 19.9164 24.7225 19.1394 24.4165 18.4019C24.0057 17.4121 23.4037 16.5128 22.6447 15.7553C21.8858 14.9978 20.9848 14.3969 19.9932 13.9869C19.2533 13.681 18.4738 13.4859 17.6799 13.4066C17.2316 13.3617 16.8655 13.7312 16.8655 14.1817C16.8655 14.6323 17.2321 14.9923 17.6791 15.0482C18.2582 15.1207 18.8262 15.2704 19.3676 15.4943C20.1609 15.8223 20.8817 16.303 21.4889 16.909C22.0961 17.515 22.5777 18.2344 22.9063 19.0262C23.1301 19.5657 23.28 20.1316 23.3528 20.7085C23.4093 21.1564 23.7699 21.5237 24.2213 21.5237ZM22.0944 20.7335C22.1601 21.1667 21.7989 21.5238 21.3607 21.5238C20.9226 21.5238 20.576 21.1647 20.4825 20.7366C20.4358 20.5228 20.37 20.313 20.2857 20.1098C20.0996 19.6615 19.827 19.2542 19.4832 18.9111C19.1394 18.568 18.7313 18.2958 18.2822 18.1101C18.0777 18.0256 17.8666 17.9597 17.6513 17.913C17.2239 17.8204 16.8655 17.4743 16.8655 17.0371C16.8655 16.5998 17.222 16.2392 17.6544 16.3043C18.0775 16.368 18.4922 16.4829 18.8893 16.6471C19.531 16.9124 20.114 17.3012 20.6051 17.7913C21.0961 18.2815 21.4857 18.8634 21.7515 19.5038C21.9156 19.8993 22.0305 20.3122 22.0944 20.7335ZM19.2693 20.5641C19.2693 21.3592 18.6235 22.0037 17.827 22.0037C17.0304 22.0037 16.3846 21.3592 16.3846 20.5641C16.3846 19.769 17.0304 19.1245 17.827 19.1245C18.6235 19.1245 19.2693 19.769 19.2693 20.5641Z" fill="#262743"/>
</svg>
