
<svg xmlns="http://www.w3.org/2000/svg" xmlns:xlink="http://www.w3.org/1999/xlink" version="1.1" width="256" height="256" viewBox="0 0 256 256" xml:space="preserve">

<defs>
</defs>
<g style="stroke: none; stroke-width: 0; stroke-dasharray: none; stroke-linecap: butt; stroke-linejoin: miter; stroke-miterlimit: 10; fill: none; fill-rule: nonzero; opacity: 1;" transform="translate(1.4065934065934016 1.4065934065934016) scale(2.81 2.81)" >
	<path d="M 46.756 90 c -15.565 0 -30.721 -8.071 -39.047 -22.492 c -6.01 -10.41 -7.607 -22.537 -4.496 -34.148 C 6.324 21.749 13.77 12.045 24.18 6.035 c 8.604 -4.968 18.353 -6.926 28.201 -5.661 c 0.838 0.108 1.518 0.73 1.698 1.555 c 0.182 0.825 -0.176 1.675 -0.892 2.124 c -14.77 9.253 -19.511 28.329 -10.794 43.429 c 8.719 15.1 27.609 20.532 43.008 12.367 c 0.743 -0.398 1.659 -0.28 2.284 0.289 c 0.624 0.569 0.823 1.47 0.498 2.249 c -3.829 9.159 -10.4 16.626 -19.004 21.593 C 62.113 88.06 54.385 90 46.756 90 z M 46.538 4.001 C 39.41 4.007 32.46 5.873 26.18 9.499 C 6.601 20.803 -0.131 45.929 11.173 65.508 s 36.428 26.311 56.008 15.007 c 6.28 -3.625 11.371 -8.712 14.941 -14.882 c -16.184 5.635 -34.346 -0.83 -43.192 -16.151 C 30.085 34.161 33.565 15.199 46.538 4.001 z" style="stroke: none; stroke-width: 1; stroke-dasharray: none; stroke-linecap: butt; stroke-linejoin: miter; stroke-miterlimit: 10; fill: rgb(0,0,0); fill-rule: nonzero; opacity: 1;" transform=" matrix(1 0 0 1 0 0) " stroke-linecap="round" />
</g>
</svg>
