<?xml version="1.0" encoding="utf-8"?>
<!-- Generator: Adobe Illustrator 28.0.0, SVG Export Plug-In . SVG Version: 6.00 Build 0)  -->
<svg version="1.1" xmlns="http://www.w3.org/2000/svg" xmlns:xlink="http://www.w3.org/1999/xlink" x="0px" y="0px"
	 viewBox="0 0 4659.6 837" style="enable-background:new 0 0 4659.6 837;" xml:space="preserve">
<style type="text/css">
	.st0{fill:#FFFFFF;}
	.st1{fill:#9B0000;}
	.st2{fill:#1C0101;}
	.st3{fill:#FFFFFF;stroke:#FFFFFF;stroke-width:3;stroke-miterlimit:10;}
	.st4{fill:#FFFFFF;stroke:#FFFFFF;stroke-miterlimit:10;}
	.st5{stroke:#000000;stroke-width:3;stroke-miterlimit:10;}
</style>
<g id="图层_3">
</g>
<g id="图层_1">
	<g id="图层_2">
	</g>
	<path class="st5" d="M173,399c0-186.4,102.4-300.8,248-300.8c144.8,0,247.2,114.4,247.2,300.8c0,187.2-102.4,305.6-247.2,305.6
		C275.4,704.6,173,586.2,173,399z M600.2,399c0-149.6-71.2-242.4-179.2-242.4c-108.8,0-180,92.8-180,242.4
		c0,150.4,71.2,247.2,180,247.2C529,646.2,600.2,549.4,600.2,399z"/>
	<path class="st5" d="M810.6,185.8h53.6l6.4,50.4h2.4c40-32,88-61.6,139.2-61.6c112.8,0,172,87.2,172,220.8
		c0,147.2-88.8,232.8-188,232.8c-40,0-81.6-18.4-121.6-50.4l1.6,76v148.8h-65.6V185.8z M1117,396.2c0-99.2-33.6-166.4-120-166.4
		c-37.6,0-76.8,21.6-120.8,61.6v234.4C917,561,957,573,986.6,573C1061.8,573,1117,505,1117,396.2z"/>
	<path class="st5" d="M1289.8,402.6c0-140.8,93.6-228,192.8-228c108,0,170.4,77.6,170.4,202.4c0,14.4-0.8,28-3.2,39.2h-295.2
		c4,96,61.6,159.2,148,159.2c43.2,0,76.8-12.8,109.6-35.2l23.2,44.8c-36.8,23.2-80.8,43.2-140,43.2
		C1381,628.2,1289.8,544.2,1289.8,402.6z M1595.4,368.2c0-92-41.6-140.8-112-140.8c-64,0-120.8,52-129.6,140.8H1595.4z"/>
	<path class="st5" d="M1781.8,191h53.6l6.4,63.2h2.4c41.6-41.6,86.4-74.4,145.6-74.4c90.4,0,132,58.4,132,168.8V623h-65.6V356.6
		c0-83.2-25.6-120-85.6-120c-45.6,0-78.4,24-123.2,69.6V623h-65.6V191z"/>
	<path class="st1" d="M2244.2,622.2l68-81.6c41.6,39.2,98.4,65.6,150.4,65.6c61.6,0,94.4-26.4,94.4-68c0-44-36.8-57.6-89.6-80
		l-78.4-34.4c-60-24-120.8-72-120.8-158.4c0-96,85.6-171.2,204.8-171.2c69.6,0,138.4,28,186.4,76.8l-60,73.6
		c-37.6-30.4-76.8-48.8-126.4-48.8c-52,0-84,23.2-84,62.4c0,42.4,41.6,57.6,92,78.4l77.6,31.2c72,29.6,119.2,76,119.2,161.6
		c0,96.8-80.8,179.2-217.6,179.2C2381,708.6,2301.8,678.2,2244.2,622.2z"/>
	<path class="st5" d="M2777,401.4c0-188,108.8-303.2,256.8-303.2c71.2,0,125.6,34.4,159.2,71.2l-36.8,43.2
		c-30.4-33.6-70.4-56-121.6-56c-114.4,0-189.6,92.8-189.6,243.2c0,151.2,72,246.4,187.2,246.4c56.8,0,100-24,138.4-67.2l36.8,41.6
		c-45.6,53.6-102.4,84-178.4,84C2883.4,704.6,2777,590.2,2777,401.4z"/>
	<path class="st5" d="M3280.2,399c0-186.4,102.4-300.8,248-300.8c144.8,0,247.2,114.4,247.2,300.8c0,187.2-102.4,305.6-247.2,305.6
		C3382.6,704.6,3280.2,586.2,3280.2,399z M3707.4,399c0-149.6-71.2-242.4-179.2-242.4c-108.8,0-180,92.8-180,242.4
		c0,150.4,71.2,247.2,180,247.2C3636.2,646.2,3707.4,549.4,3707.4,399z"/>
	<path class="st5" d="M3857.8,108.6h68l64,325.6c12.8,62.4,24.8,125.6,36.8,189.6h3.2c13.6-64,28-127.2,42.4-189.6l83.2-325.6h61.6
		l84,325.6c15.2,62.4,28.8,125.6,43.2,189.6h4c11.2-64,23.2-127.2,33.6-189.6l65.6-325.6h63.2l-123.2,585.6h-79.2l-92-364.8
		c-10.4-46.4-20-87.2-29.6-132.8h-3.2c-9.6,45.6-20.8,86.4-30.4,132.8l-91.2,364.8h-77.6L3857.8,108.6z"/>
</g>
</svg>
