<?xml version="1.0" encoding="utf-8"?>
<!-- Generator: Adobe Illustrator 28.0.0, SVG Export Plug-In . SVG Version: 6.00 Build 0)  -->
<svg version="1.1" xmlns="http://www.w3.org/2000/svg" xmlns:xlink="http://www.w3.org/1999/xlink" x="0px" y="0px"
	 viewBox="0 0 2834.6 509.2" style="enable-background:new 0 0 2834.6 509.2;" xml:space="preserve">
<style type="text/css">
	.st0{fill:#FFFFFF;}
	.st1{fill:#9B0000;}
	.st2{fill:#1C0101;}
	.st3{fill:#FFFFFF;stroke:#FFFFFF;stroke-width:3;stroke-miterlimit:10;}
	.st4{fill:#FFFFFF;stroke:#FFFFFF;stroke-miterlimit:10;}
	.st5{stroke:#000000;stroke-width:3;stroke-miterlimit:10;}
</style>
<g id="图层_3">
</g>
<g id="图层_1">
	<g id="图层_2">
	</g>
	<path class="st3" d="M115.8,240.2c0-111.5,61.2-179.9,148.3-179.9c86.6,0,147.8,68.4,147.8,179.9c0,112-61.2,182.8-147.8,182.8
		C177,423,115.8,352.1,115.8,240.2z M371.3,240.2c0-89.5-42.6-145-107.2-145c-65.1,0-107.7,55.5-107.7,145
		c0,90,42.6,147.8,107.7,147.8C328.7,388,371.3,330.1,371.3,240.2z"/>
	<path class="st3" d="M497.1,112.7h32.1l3.8,30.1h1.4c23.9-19.1,52.6-36.8,83.3-36.8c67.5,0,102.9,52.2,102.9,132.1
		c0,88-53.1,139.2-112.4,139.2c-23.9,0-48.8-11-72.7-30.1l1,45.5v89h-39.2V112.7z M680.4,238.5c0-59.3-20.1-99.5-71.8-99.5
		c-22.5,0-45.9,12.9-72.2,36.8V316c24.4,21.1,48.3,28.2,66,28.2C647.4,344.2,680.4,303.6,680.4,238.5z"/>
	<path class="st3" d="M783.7,242.3c0-84.2,56-136.4,115.3-136.4c64.6,0,101.9,46.4,101.9,121.1c0,8.6-0.5,16.7-1.9,23.4H822.5
		c2.4,57.4,36.8,95.2,88.5,95.2c25.8,0,45.9-7.7,65.6-21.1l13.9,26.8c-22,13.9-48.3,25.8-83.7,25.8
		C838.3,377.3,783.7,327,783.7,242.3z M966.5,221.8c0-55-24.9-84.2-67-84.2c-38.3,0-72.2,31.1-77.5,84.2H966.5z"/>
	<path class="st3" d="M1078,115.8h32.1l3.8,37.8h1.4c24.9-24.9,51.7-44.5,87.1-44.5c54.1,0,78.9,34.9,78.9,101v164.1h-39.2V214.8
		c0-49.8-15.3-71.8-51.2-71.8c-27.3,0-46.9,14.4-73.7,41.6v189.5H1078V115.8z"/>
	<path class="st4" d="M1354.5,373.7l40.7-48.8c24.9,23.4,58.9,39.2,90,39.2c36.8,0,56.5-15.8,56.5-40.7c0-26.3-22-34.4-53.6-47.8
		l-46.9-20.6c-35.9-14.4-72.2-43.1-72.2-94.7c0-57.4,51.2-102.4,122.5-102.4c41.6,0,82.8,16.7,111.5,45.9l-35.9,44
		c-22.5-18.2-45.9-29.2-75.6-29.2c-31.1,0-50.2,13.9-50.2,37.3c0,25.4,24.9,34.4,55,46.9l46.4,18.7c43.1,17.7,71.3,45.5,71.3,96.7
		c0,57.9-48.3,107.2-130.1,107.2C1436.3,425.3,1389,407.2,1354.5,373.7z"/>
	<path class="st3" d="M1673.2,241.6c0-112.4,65.1-181.3,153.6-181.3c42.6,0,75.1,20.6,95.2,42.6l-22,25.8
		c-18.2-20.1-42.1-33.5-72.7-33.5c-68.4,0-113.4,55.5-113.4,145.5c0,90.4,43.1,147.4,112,147.4c34,0,59.8-14.4,82.8-40.2l22,24.9
		c-27.3,32.1-61.2,50.2-106.7,50.2C1736.8,423,1673.2,354.5,1673.2,241.6z"/>
	<path class="st3" d="M1974.1,240.2c0-111.5,61.2-179.9,148.3-179.9c86.6,0,147.8,68.4,147.8,179.9c0,112-61.2,182.8-147.8,182.8
		C2035.4,423,1974.1,352.1,1974.1,240.2z M2229.6,240.2c0-89.5-42.6-145-107.2-145c-65.1,0-107.7,55.5-107.7,145
		c0,90,42.6,147.8,107.7,147.8C2187,388,2229.6,330.1,2229.6,240.2z"/>
	<path class="st3" d="M2319.6,66.5h40.7l38.3,194.7c7.7,37.3,14.8,75.1,22,113.4h1.9c8.1-38.3,16.7-76.1,25.4-113.4l49.8-194.7h36.8
		l50.2,194.7c9.1,37.3,17.2,75.1,25.8,113.4h2.4c6.7-38.3,13.9-76.1,20.1-113.4l39.2-194.7h37.8l-73.7,350.2H2589l-55-218.2
		c-6.2-27.8-12-52.2-17.7-79.4h-1.9c-5.7,27.3-12.4,51.7-18.2,79.4l-54.5,218.2h-46.4L2319.6,66.5z"/>
</g>
</svg>
