<svg id="图层_1" data-name="图层 1" xmlns="http://www.w3.org/2000/svg" viewBox="0 0 1080 1080"><defs><style>.cls-1{fill:#e8ac5d;}.cls-2{fill:#94070a;}</style></defs><path class="cls-1" d="M816.59,410.83a45.4,45.4,0,0,0,0-64.52l-87.17-87.17a45.4,45.4,0,0,0-64.52,0l-88.75,88.75,151.69,152Zm0,0"/><path class="cls-1" d="M309.59,614.45a85.28,85.28,0,0,0-20.14,33L252,784.71a31.4,31.4,0,0,0,20.46,39,31.09,31.09,0,0,0,18.56,0l137.22-37.45a82.7,82.7,0,0,0,33.36-20.14l34.3-34.3-151.69-152Z"/><path class="cls-2" d="M417.54,269.21c-19.2-19.51-51-19.51-70.5,0l-82.45,82.46a49.76,49.76,0,0,0,0,70.49l39,39.34L376,388.8a24.93,24.93,0,0,1,35.25,35.25l-72.39,72.07,35.25,35.24,43.11-43.11a24.52,24.52,0,0,1,34.94-.32l.31.32a24.88,24.88,0,0,1,0,35.25l-42.8,43.11,35.25,35.25L517,529.48a24.92,24.92,0,0,1,35.25,35.24l-73,71.76,35.56,35.88.32-.32,42.48-42.8a24.93,24.93,0,0,1,35.25,35.25L550,707l-.31.32L585,742.54,657,670.47a24.93,24.93,0,0,1,35.25,35.25L619.9,777.47l42.17,42.17a50,50,0,0,0,70.49.31l82.77-82.77a49.76,49.76,0,0,0,0-70.49Z"/></svg>